<svg width="200" height="300" xmlns="http://www.w3.org/2000/svg">
 <g id="Layer_1">
  <title>Layer 1</title>
  <path d="m110,130.2c1,0 2,0 4,0c0,0 2,0 5,0c2,0 4,-1 7,-1c2,0 4,0 6,0c1,0 1.29289,-0.29289 2,-1c0.70711,-0.70711 2,0 2,1c0,2 0,4 0,5c0,1 0,2 0,4c0,2 0.22975,4.02675 0,5c-0.51375,2.17625 -1,4 -1,7c0,1 0,3 0,4c0,2 0,3 0,5c0,1 0,3 0,3c0,1 -0.76935,0.69678 -2,0c-3.58792,-2.03145 -9.107,-1.08099 -13,-2c-2.17625,-0.51375 -2,-2 -3,-2c-1,0 -1,0 -3,0c0,0 -1,0 -2,0c-1,0 -2,0 -2,0c0,0 0,2 0,4c0,3 0,4 0,6c0,2 0,2 0,3c0,1 0,2 0,3c0,0 0,1 0,2c0,2 -1.4588,1.69344 -2,3c-0.38268,0.92387 -0.1731,2.14726 -1,1c-1.30745,-1.814 -2.21168,-3.71413 -5,-6c-1.09367,-0.89659 -4,-4 -7,-7c-5,-5 -6,-6 -8,-8c-1,-1 -1,-1 -2,-2c-2,-2 -3.61384,-4.297 -6,-7c-2.95967,-3.35266 -5.58578,-5.58578 -7,-7c-0.70711,-0.70711 -1.70711,-1.29289 -1,-2c0.70711,-0.70711 0.92807,-2.61104 3,-5c2.93015,-3.37849 5.82375,-5.48625 8,-6c0.97325,-0.22975 3,-2 5,-4c2,-2 4.07612,-3.61732 5,-4c1.30656,-0.5412 2.16124,-3.79626 6,-7c3.43349,-2.86551 9.22624,-4.22884 12,-10c0.86638,-1.8026 2.69255,-4.186 4,-6c0.8269,-1.14727 0.69344,-3.4588 2,-4c0.92388,-0.38268 1,1 1,3c0,0 -1,4 -1,4c-1,3 -2,5 -2,7c0,1 0,1 0,2c0,1 0,2 0,3c0,0 0.38268,2.07612 0,3c-0.5412,1.30656 -1,1 -1,2c0,1 0,2 0,3c0,0 0,2 0,3c0,1 -0.29289,0.29289 -1,1c-0.70711,0.70711 0,2 0,3l0,1l0,0" id="svg_1" stroke="#000" fill="none"/>
 </g>

</svg>