<svg width="200" height="300" xmlns="http://www.w3.org/2000/svg">
 <g id="Layer_1">
  <title>Layer 1</title>
  <path d="m47,163c3,-2 5.90437,-4.25801 11,-6c6.8887,-2.35495 15.03716,-4.35365 19,-8c1.64548,-1.51407 4,-2 5,-3c1,-1 4.31001,-2.33749 7,-4c2.40601,-1.487 3.29289,-3.29289 4,-4c0.70711,-0.70711 0,-2 1,-2c0,0 1.61105,0.92807 4,3c1.68925,1.46507 3.4588,3.69344 4,5c0.38268,0.92387 1.15224,0.23463 3,1c2.61313,1.0824 4.08582,1.42043 6,2c3.45084,1.04483 5,4 8,4c3,0 7.07844,1.78986 10,3c2.06586,0.85571 5,1 6,1c0,0 1.82443,0.09789 3,2c0.52573,0.85065 3.07613,1.61731 4,2c2.61313,1.0824 4,3 4,3c1,1 2,1 3,1c1,0 1,0 1,0c-1,0 -4.02582,0.67964 -6,1c-3.12144,0.50655 -5,1 -7,1c-3,0 -5,0 -9,0c-2,0 -4,0 -6,0c0,0 -3,0 -5,0c-3,0 -5,1 -6,1c-1,0 -1.29289,-0.70711 -2,0c-0.70711,0.70711 0,2 0,4c0,1 0,3 0,5c0,0 0,2 0,4c0,3 0.48055,4.03874 0,7c-0.50654,3.12144 -1,5 -1,7c0,2 0,3 0,5c0,1 0,1 0,4c0,1 0,1 0,2c0,2 0,3 0,3c0,1 -1,1 -2,1c-1,0 -6.13747,0.78343 -14,-1c-3.08394,-0.69952 -4.07612,-0.61731 -5,-1c-1.30656,-0.5412 -2,-1 -4,-1c-2,0 -5,0 -7,0c-2,0 -4.49346,0.12144 -5,-3c-0.48055,-2.96126 0,-5 0,-7c0,-3 0,-4 0,-5c0,-2 0,-4 0,-6c0,-3 0,-5 0,-6c0,-3 -0.22975,-4.02675 0,-5c0.51374,-2.17625 1,-2 1,-3c0,-1 1,-1 1,-2c0,-1 0,-1 0,-3c0,-1 0,-2 0,-4c0,-1 -1,-1 -3,-1c-5,0 -11,0 -13,0c-1,0 -2,0 -4,0l-8,0l-3,0l-3,0" id="svg_2" stroke="#000" fill="none"/>
 </g>

</svg>