<svg width="200" height="300" xmlns="http://www.w3.org/2000/svg">
 <g id="Layer_1">
  <title>Layer 1</title>
  <path d="m106,130c0,0 0,-1 0,-3c0,-1 0,-3 0,-4c0,-2 0,-4 0,-5c0,-1 0,-2 0,-3c0,-2 0,-4 0,-4c0,-1 0,-2 0,-3c0,-1 1,-1 1,-1c1,0 3,0 3,0c0,1 2,2 3,3c1,1 2.61732,1.07612 3,2c0.5412,1.30656 2,2 3,3c2,2 2.61732,3.07612 3,4c1.08239,2.61313 3,3 5,5c1,1 3,3 4,4c1,1 3,3 3,3c1,1 1,2 2,3c1,1 2,1 2,2c0,0 0.61731,1.07613 1,2c0.5412,1.30656 2.29289,0.29289 3,1c0.70711,0.70711 0.29289,1.29289 1,2c0.70711,0.70711 -0.29289,1.29289 -1,2c-0.70711,0.70711 -1,1 -2,2c-1,1 -2.07613,1.61731 -3,2c-1.30656,0.5412 -1.94853,1.29869 -3,3c-1.17557,1.90211 -3.09789,1.82443 -5,3c-1.7013,1.05147 -3.31001,1.33749 -6,3c-1.203,0.7435 -1.69344,2.4588 -3,3c-0.92388,0.38269 -1.29289,-0.70711 -2,0c-0.70711,0.70711 -0.4588,0.69344 -1,2c-0.38268,0.92387 -1,2 -2,2c-1,0 -1,1 -1,2c0,1 0,2 -1,2c0,0 -0.07612,1.38269 -1,1c-1.30656,-0.5412 -2,-3 -2,-4c0,-1 -1,-3 -1,-5c0,0 -1,-1 -1,-3c0,-1 0,-1 0,-2c0,-1 0,-2 0,-3c0,-1 0,-2 0,-3c0,-1 0,-2 -2,-2c-3,0 -8,0 -15,0c-2,0 -3.02675,0.22975 -4,0c-2.17625,-0.51375 -5,-1 -6,-1c-2,0 -4,0 -7,0c-2,0 -3,0 -3,-1c0,-1 0,-3 0,-5c0,-3 0,-4 0,-7c0,-1 0,-1 3,-1c3,0 8,0 10,0c2,0 3,0 4,0c1,0 3,0 5,0c1,0 2,0 3,0c1,0 2,0 2,0c1,0 2,0 3,0c1,0 1,0 2,0l1,0l1,0l0,-1" id="svg_3" stroke="#000" fill="none"/>
 </g>

</svg>